HIERARCHY
ROOT Hips
{
	OFFSET 0.000000 0.000000 0.000000
	CHANNELS 6 Xposition Yposition Zposition Xrotation Yrotation Zrotation
	JOINT Spine
	{
		OFFSET 0.000000 0.053497 0.080245
		CHANNELS 3 Xrotation Yrotation Zrotation
		JOINT Spine1
		{
			OFFSET 0.000000 0.018579 0.105368
			CHANNELS 3 Xrotation Yrotation Zrotation
			JOINT Spine2
			{
				OFFSET 0.000000 0.009325 0.106586
				CHANNELS 3 Xrotation Yrotation Zrotation
				JOINT Spine3
				{
					OFFSET 0.000000 0.000000 0.106993
					CHANNELS 3 Xrotation Yrotation Zrotation
					JOINT Neck
					{
						OFFSET 0.000000 -0.040122 0.280858
						CHANNELS 3 Xrotation Yrotation Zrotation
						JOINT Head
						{
							OFFSET 0.000000 -0.025546 0.144881
							CHANNELS 3 Xrotation Yrotation Zrotation
							End Site
							{
								OFFSET 0.000000 0.000000 0.000000
							}
						}
					}
					JOINT RightShoulder
					{
						OFFSET -0.032541 -0.054234 0.175720
						CHANNELS 3 Xrotation Yrotation Zrotation
						JOINT RightArm
						{
							OFFSET -0.161619 0.000000 0.000000
							CHANNELS 3 Xrotation Yrotation Zrotation
							JOINT RightForeArm
							{
								OFFSET -0.257104 0.000000 0.000000
								CHANNELS 3 Xrotation Yrotation Zrotation
								JOINT RightHand
								{
									OFFSET -0.273485 0.000000 0.000000
									CHANNELS 3 Xrotation Yrotation Zrotation
									JOINT RightHandEnd
									{
										OFFSET -0.070844 0.000000 0.000000
										CHANNELS 3 Xrotation Yrotation Zrotation
										End Site
										{
											OFFSET 0.000000 0.000000 0.000000
										}
									}
									JOINT RightHandThumb1
									{
										OFFSET -0.028338 -0.047230 -0.018892
										CHANNELS 3 Xrotation Yrotation Zrotation
										End Site
										{
											OFFSET 0.000000 0.000000 0.000000
										}
									}
								}
							}
						}
					}
					JOINT LeftShoulder
					{
						OFFSET 0.032541 -0.054234 0.175720
						CHANNELS 3 Xrotation Yrotation Zrotation
						JOINT LeftArm
						{
							OFFSET 0.161619 0.000000 0.000000
							CHANNELS 3 Xrotation Yrotation Zrotation
							JOINT LeftForeArm
							{
								OFFSET 0.257104 0.000000 0.000000
								CHANNELS 3 Xrotation Yrotation Zrotation
								JOINT LeftHand
								{
									OFFSET 0.273485 0.000000 0.000000
									CHANNELS 3 Xrotation Yrotation Zrotation
									JOINT LeftHandEnd
									{
										OFFSET 0.070844 0.000000 0.000000
										CHANNELS 3 Xrotation Yrotation Zrotation
										End Site
										{
											OFFSET 0.000000 0.000000 0.000000
										}
									}
									JOINT LeftHandThumb1
									{
										OFFSET 0.028338 -0.047230 -0.018892
										CHANNELS 3 Xrotation Yrotation Zrotation
										End Site
										{
											OFFSET 0.000000 0.000000 0.000000
										}
									}
								}
							}
						}
					}
				}
			}
		}
	}
	JOINT RightUpLeg
	{
		OFFSET -0.096537 0.000000 -0.028202
		CHANNELS 3 Xrotation Yrotation Zrotation
		JOINT RightLeg
		{
			OFFSET 0.000000 0.000000 -0.431842
			CHANNELS 3 Xrotation Yrotation Zrotation
			JOINT RightFoot
			{
				OFFSET 0.000000 0.000000 -0.456398
				CHANNELS 3 Xrotation Yrotation Zrotation
				JOINT RightToeBase
				{
					OFFSET 0.000000 -0.128905 -0.046918
					CHANNELS 3 Xrotation Yrotation Zrotation
					End Site
					{
						OFFSET 0.000000 0.000000 0.000000
					}
				}
			}
		}
	}
	JOINT LeftUpLeg
	{
		OFFSET 0.096537 0.000000 -0.028202
		CHANNELS 3 Xrotation Yrotation Zrotation
		JOINT LeftLeg
		{
			OFFSET 0.000000 0.000000 -0.431842
			CHANNELS 3 Xrotation Yrotation Zrotation
			JOINT LeftFoot
			{
				OFFSET 0.000000 0.000000 -0.456398
				CHANNELS 3 Xrotation Yrotation Zrotation
				JOINT LeftToeBase
				{
					OFFSET 0.000000 -0.128905 -0.046918
					CHANNELS 3 Xrotation Yrotation Zrotation
					End Site
					{
						OFFSET 0.000000 0.000000 0.000000
					}
				}
			}
		}
	}
}
MOTION
Frames: 7
Frame Time: 0.033333
0.193068 -0.166301 0.245781 -2.410100 -83.472800 -94.822400 -4.728200 -1.014700 0.112900 -2.717300 -0.682800 0.025100 8.396900 -1.881200 -0.256700 4.173600 -0.669600 1.615600 27.797500 3.573700 -2.465000 0.446000 -2.867700 6.279100 -7.170800 -4.775100 16.766800 -36.297800 -52.367700 19.323500 -0.000100 0.000100 103.737000 68.416800 13.219600 -18.407300 0.000000 0.000000 0.000000 0.000000 0.000000 0.000000 -6.830700 10.877700 -17.272300 -14.850200 51.839600 -46.870600 -0.000100 -0.000100 -100.704400 74.298300 -10.308600 31.062400 0.000000 0.000000 0.000000 0.000000 0.000000 0.000000 -7.958300 -6.672200 11.368100 17.766000 0.000000 0.000000 -27.493200 7.238300 -18.961900 -45.749000 0.000000 0.000000 -8.097800 0.065300 -18.837500 18.552600 0.000000 0.000000 -31.865000 21.007700 15.934400 -62.018800 0.000000 0.000000 
0.192801 -0.167335 0.244808 -2.637700 -83.379000 -95.346700 -4.688400 -1.062400 0.122400 -2.706800 -0.770300 0.021900 8.351100 -1.853100 -0.171900 4.177800 -0.685000 1.647400 27.907400 3.952800 -2.434100 0.448300 -2.863000 6.425700 -7.116400 -4.586200 16.892200 -36.263500 -52.414900 19.277700 -0.000100 0.000100 103.737400 68.405600 13.283200 -18.405900 0.000000 0.000000 0.000000 0.000000 0.000000 0.000000 -6.508800 10.962100 -17.211300 -15.111700 51.794200 -46.786100 -0.000100 -0.000100 -100.813000 74.419800 -10.098700 31.065700 0.000000 0.000000 0.000000 0.000000 0.000000 0.000000 -7.873800 -6.581600 11.269400 17.887800 0.000000 0.000000 -27.592500 7.097900 -18.716500 -45.676900 0.000000 0.000000 -7.870900 0.179400 -18.893100 18.519800 0.000000 0.000000 -31.999500 20.769900 16.257900 -61.845200 0.000000 0.000000 
0.192646 -0.168455 0.244155 -2.825400 -83.357500 -95.756200 -4.663900 -1.090200 0.123900 -2.705700 -0.847400 0.014100 8.256800 -1.892300 -0.141300 4.173100 -0.707700 1.684500 28.026600 4.259600 -2.416800 0.420400 -2.870000 6.565300 -7.023900 -4.400900 17.015600 -36.218600 -52.410300 19.290400 -0.000100 0.000100 103.716600 68.354900 13.325200 -18.393200 0.000000 0.000000 0.000000 0.000000 0.000000 0.000000 -6.300500 11.154800 -17.121900 -15.229000 51.700600 -46.734300 -0.000100 -0.000100 -100.883100 74.638900 -9.866000 31.078000 0.000000 0.000000 0.000000 0.000000 0.000000 0.000000 -7.886100 -6.479400 11.011700 17.999600 0.000000 0.000000 -27.695900 6.941200 -18.407800 -45.673000 0.000000 0.000000 -7.808000 0.297300 -19.011500 18.592600 0.000000 0.000000 -32.107000 20.611900 16.482600 -61.816600 0.000000 0.000000 
0.192583 -0.169111 0.243832 -3.258600 -83.400900 -96.464000 -4.674400 -1.063300 0.120900 -2.712600 -0.870400 0.009100 8.170600 -1.940600 -0.115600 4.162600 -0.741500 1.720300 28.114000 4.460500 -2.380300 0.389300 -2.899300 6.589100 -6.932600 -4.318500 17.238900 -36.191000 -52.331900 19.294400 -0.000100 0.000100 103.697500 68.293800 13.344600 -18.401800 0.000000 0.000000 0.000000 0.000000 0.000000 0.000000 -6.288100 11.349000 -16.820600 -15.034500 51.595000 -46.907700 -0.000100 -0.000100 -100.867600 74.857800 -9.774900 31.172000 0.000000 0.000000 0.000000 0.000000 0.000000 0.000000 -7.985000 -6.415700 10.928400 18.106900 0.000000 0.000000 -27.745900 6.875300 -18.203700 -45.719400 0.000000 0.000000 -7.842400 0.369300 -19.027600 18.667500 0.000000 0.000000 -32.154100 20.570700 16.563300 -61.946300 0.000000 0.000000 
0.192524 -0.169497 0.243497 -3.972200 -83.440400 -97.570900 -4.699600 -1.025400 0.113500 -2.720100 -0.874200 0.008200 8.119400 -1.928100 -0.049900 4.153500 -0.769400 1.733500 28.166700 4.681600 -2.313500 0.390300 -2.907500 6.514000 -6.856800 -4.319500 17.576700 -36.162800 -52.234300 19.289000 -0.000100 0.000100 103.676700 68.259600 13.381200 -18.437800 0.000000 0.000000 0.000000 0.000000 0.000000 0.000000 -6.338600 11.448500 -16.348100 -14.734600 51.557000 -47.189500 -0.000100 -0.000100 -100.835000 75.076700 -9.640300 31.271700 0.000000 0.000000 0.000000 0.000000 0.000000 0.000000 -8.073400 -6.366800 11.056200 18.204200 0.000000 0.000000 -27.778300 6.868700 -18.082800 -45.688200 0.000000 0.000000 -7.835600 0.417900 -18.919800 18.681100 0.000000 0.000000 -32.176900 20.543300 16.593800 -62.045100 0.000000 0.000000 
0.192430 -0.170015 0.242908 -4.636900 -83.452900 -98.670700 -4.725200 -1.025100 0.114900 -2.731800 -0.905200 0.007500 8.082900 -1.884400 0.047600 4.150700 -0.777100 1.733000 28.219400 4.957800 -2.218500 0.427000 -2.863900 6.468200 -6.800800 -4.328100 17.895600 -36.079400 -52.164300 19.325400 -0.000100 0.000100 103.651500 68.239800 13.406600 -18.458200 0.000000 0.000000 0.000000 0.000000 0.000000 0.000000 -6.311600 11.497000 -15.910000 -14.521500 51.596800 -47.421600 -0.000100 -0.000100 -100.838900 75.324600 -9.224800 31.247900 0.000000 0.000000 0.000000 0.000000 0.000000 0.000000 -8.104400 -6.303700 11.216200 18.275600 0.000000 0.000000 -27.828800 6.830200 -17.928000 -45.592000 0.000000 0.000000 -7.765200 0.473000 -18.761100 18.668900 0.000000 0.000000 -32.220700 20.456300 16.655300 -62.035900 0.000000 0.000000 
0.192283 -0.170734 0.242095 -5.164100 -83.454000 -99.542100 -4.757600 -1.044900 0.118500 -2.750200 -0.952300 0.007600 8.046600 -1.857600 0.129800 4.151500 -0.775300 1.730700 28.288500 5.182600 -2.096500 0.464800 -2.814600 6.515500 -6.738900 -4.321800 18.104600 -35.958500 -52.103600 19.410700 -0.000100 0.000100 103.629900 68.203100 13.386900 -18.435500 0.000000 0.000000 0.000000 0.000000 0.000000 0.000000 -6.252300 11.577200 -15.595000 -14.327400 51.646200 -47.603700 -0.000100 -0.000100 -100.866900 75.474300 -8.670100 31.086300 0.000000 0.000000 0.000000 0.000000 0.000000 0.000000 -8.107900 -6.218300 11.301800 18.344000 0.000000 0.000000 -27.884700 6.761800 -17.736100 -45.542000 0.000000 0.000000 -7.675100 0.554800 -18.663700 18.655000 0.000000 0.000000 -32.276000 20.327900 16.768700 -62.024900 0.000000 0.000000 
